<svg width="1440" height="1204" viewBox="0 0 1440 1204" fill="none" xmlns="http://www.w3.org/2000/svg">
<path d="M-251 689.41V920.113C558.606 1115.15 1021.12 1190.71 1877 1204V689.41H-251Z" fill="#E8EDF3"/>
<path d="M-251 590.229V820.932C558.606 1015.97 1021.12 1091.53 1877 1104.82V590.229H-251Z" fill="#D9E2F0"/>
<path d="M-251 491.049V721.752C558.606 916.79 1021.12 992.347 1877 1005.64V491.049H-251Z" fill="#CAD8EC"/>
<path d="M1877 514.59V283.887C1067.39 88.8489 604.877 13.2914 -251 5.22137e-05V514.59L1877 514.59Z" fill="#E8EDF3"/>
<path d="M1877 613.771V383.068C1067.39 188.03 604.877 112.472 -251 99.1807V613.771L1877 613.771Z" fill="#D9E2F0"/>
<path d="M1877 712.951V482.248C1067.39 287.21 604.877 211.653 -251 198.361V712.951L1877 712.951Z" fill="#CAD8EC"/>
</svg>
