<svg width="1440" height="841" viewBox="0 0 1440 841" fill="none" xmlns="http://www.w3.org/2000/svg">
<path d="M-251 481.556V642.704C558.606 778.939 1021.12 831.716 1877 841V481.556H-251Z" fill="#E8EDF3"/>
<path d="M-251 412.278V573.425C558.606 709.66 1021.12 762.438 1877 771.722V412.278H-251Z" fill="#D9E2F0"/>
<path d="M-251 343V504.147C558.606 640.382 1021.12 693.16 1877 702.444V343H-251Z" fill="#CAD8EC"/>
<path d="M1877 359.444V198.296C1067.39 62.0614 604.877 9.2841 -251 5.65052e-05V359.444L1877 359.444Z" fill="#E8EDF3"/>
<path d="M1877 428.722V267.575C1067.39 131.34 604.877 78.5622 -251 69.2781V428.722L1877 428.722Z" fill="#D9E2F0"/>
<path d="M1877 498V336.853C1067.39 200.618 604.877 147.84 -251 138.556V498L1877 498Z" fill="#CAD8EC"/>
</svg>
