<svg width="2160" height="865" viewBox="0 0 2160 865" fill="none" xmlns="http://www.w3.org/2000/svg">
<path d="M0 495.299V661.045C821.78 801.167 1291.25 855.451 2160 865V495.299H0Z" fill="#E8EDF3"/>
<path d="M0 424.043V589.789C821.78 729.912 1291.25 784.196 2160 793.745V424.043H0Z" fill="#D9E2F0"/>
<path d="M0 352.788V518.534C821.78 658.657 1291.25 712.941 2160 722.49V352.788H0Z" fill="#CAD8EC"/>
<path d="M2160 369.701V203.955C1338.22 63.8322 868.748 9.54871 9.13143e-05 -0.00027442V369.701L2160 369.701Z" fill="#E8EDF3"/>
<path d="M2160 440.956V275.21C1338.22 135.088 868.748 80.8041 9.13143e-05 71.2551V440.956L2160 440.956Z" fill="#D9E2F0"/>
<path d="M2160 512.211V346.465C1338.22 206.343 868.747 152.059 -2.38419e-07 142.51V512.211L2160 512.211Z" fill="#CAD8EC"/>
</svg>
